<svg xmlns="http://www.w3.org/2000/svg" xmlns:xlink="http://www.w3.org/1999/xlink" width="2048" zoomAndPan="magnify" viewBox="0 0 1536 857.249973" height="1143" preserveAspectRatio="xMidYMid meet" version="1.0"><defs><g/></defs><g fill="#3e2b26" fill-opacity="1"><g transform="translate(140.718016, 570.156554)"><g><path d="M 117.046875 -213.875 C 117.859375 -211.414062 118.675781 -209.375 119.5 -207.75 C 120.3125 -205.695312 120.925781 -203.648438 121.34375 -201.609375 C 121.75 -199.984375 121.539062 -198.351562 120.71875 -196.71875 C 119.90625 -195.082031 119.90625 -193.445312 120.71875 -191.8125 C 121.945312 -188.945312 123.378906 -186.085938 125.015625 -183.234375 C 126.242188 -179.960938 127.878906 -177.921875 129.921875 -177.109375 C 133.179688 -175.054688 136.039062 -175.460938 138.5 -178.328125 C 140.539062 -180.773438 142.171875 -183.429688 143.390625 -186.296875 C 146.253906 -194.460938 149.117188 -202.632812 151.984375 -210.8125 C 154.835938 -218.570312 156.878906 -226.535156 158.109375 -234.703125 C 160.148438 -250.234375 161.578125 -265.960938 162.390625 -281.890625 C 162.804688 -297.828125 162.195312 -313.757812 160.5625 -329.6875 C 159.738281 -335.40625 159.53125 -341.128906 159.9375 -346.859375 C 160.351562 -352.160156 160.351562 -357.671875 159.9375 -363.390625 C 159.125 -370.335938 158.101562 -377.488281 156.875 -384.84375 C 155.238281 -392.195312 154.015625 -399.550781 153.203125 -406.90625 C 151.972656 -413.03125 147.679688 -417.113281 140.328125 -419.15625 C 139.109375 -417.9375 137.882812 -416.914062 136.65625 -416.09375 C 135.019531 -414.875 133.796875 -413.648438 132.984375 -412.421875 C 128.484375 -404.660156 123.785156 -397.101562 118.890625 -389.75 C 113.578125 -382.394531 109.898438 -374.019531 107.859375 -364.625 C 106.222656 -358.5 104.179688 -352.367188 101.734375 -346.234375 C 98.867188 -340.109375 97.234375 -333.984375 96.828125 -327.859375 C 96.421875 -313.960938 95.398438 -300.273438 93.765625 -286.796875 C 91.722656 -272.898438 91.3125 -259.007812 92.53125 -245.125 C 93.757812 -235.726562 93.960938 -226.535156 93.140625 -217.546875 C 92.328125 -208.148438 91.304688 -198.753906 90.078125 -189.359375 C 84.765625 -148.097656 80.476562 -107.039062 77.21875 -66.1875 C 73.539062 -25.332031 71.703125 15.722656 71.703125 56.984375 L 71.703125 109.6875 C 67.203125 115.40625 62.503906 118.675781 57.609375 119.5 C 52.296875 120.726562 47.1875 121.75 42.28125 122.5625 C 37.789062 123.375 33.707031 122.757812 30.03125 120.71875 C 25.945312 118.675781 22.472656 116.019531 19.609375 112.75 C 16.335938 109.894531 13.882812 106.425781 12.25 102.34375 C 10.625 98.257812 9.8125 94.378906 9.8125 90.703125 C 9.8125 74.359375 9.8125 58.21875 9.8125 42.28125 C 9.394531 26.351562 8.984375 10.421875 8.578125 -5.515625 C 8.171875 -24.710938 7.765625 -43.707031 7.359375 -62.5 C 6.535156 -80.882812 5.71875 -99.472656 4.90625 -118.265625 C 3.269531 -164.023438 2.859375 -209.375 3.671875 -254.3125 C 4.085938 -299.257812 5.316406 -344.609375 7.359375 -390.359375 C 8.171875 -402.210938 8.78125 -414.0625 9.1875 -425.90625 C 9.1875 -437.34375 9.597656 -448.984375 10.421875 -460.828125 C 10.421875 -464.921875 13.078125 -466.96875 18.390625 -466.96875 C 23.691406 -466.550781 29.613281 -465.117188 36.15625 -462.671875 C 42.28125 -460.222656 48.410156 -457.566406 54.546875 -454.703125 C 60.265625 -451.429688 63.941406 -449.1875 65.578125 -447.96875 C 72.515625 -442.25 77.820312 -436.320312 81.5 -430.1875 C 84.769531 -424.0625 85.179688 -416.300781 82.734375 -406.90625 C 82.316406 -406.5 82.109375 -405.882812 82.109375 -405.0625 C 81.296875 -386.6875 80.484375 -368.507812 79.671875 -350.53125 C 78.847656 -332.144531 78.03125 -313.757812 77.21875 -295.375 C 78.03125 -295.375 78.640625 -295.375 79.046875 -295.375 C 79.046875 -294.96875 79.457031 -294.765625 80.28125 -294.765625 C 82.320312 -299.660156 84.160156 -304.5625 85.796875 -309.46875 C 87.429688 -314.375 88.859375 -319.484375 90.078125 -324.796875 C 94.171875 -339.085938 97.847656 -353.585938 101.109375 -368.296875 C 104.378906 -383.003906 108.257812 -397.507812 112.75 -411.8125 C 117.25 -426.113281 125.421875 -435.507812 137.265625 -440 C 148.703125 -444.488281 160.957031 -444.691406 174.03125 -440.609375 C 188.332031 -436.117188 199.160156 -428.96875 206.515625 -419.15625 C 213.460938 -409.351562 218.363281 -398.328125 221.21875 -386.078125 C 224.082031 -373.816406 225.3125 -360.945312 224.90625 -347.46875 C 224.5 -333.976562 224.085938 -321.515625 223.671875 -310.078125 C 223.265625 -295.367188 222.65625 -280.457031 221.84375 -265.34375 C 221.019531 -250.226562 218.769531 -235.726562 215.09375 -221.84375 C 211.414062 -207.945312 205.695312 -195.28125 197.9375 -183.84375 C 189.769531 -172 178.128906 -162.191406 163.015625 -154.421875 C 141.359375 -143.398438 124.195312 -149.125 111.53125 -171.59375 C 110.71875 -172.8125 110.101562 -174.238281 109.6875 -175.875 C 109.28125 -177.507812 108.671875 -179.144531 107.859375 -180.78125 C 105.816406 -184.863281 104.382812 -188.128906 103.5625 -190.578125 C 102.75 -193.035156 102.75 -195.488281 103.5625 -197.9375 C 103.96875 -199.976562 105.398438 -202.222656 107.859375 -204.671875 C 109.898438 -207.128906 112.960938 -210.195312 117.046875 -213.875 Z M 117.046875 -213.875 "/></g></g></g><g fill="#3e2b26" fill-opacity="1"><g transform="translate(251.63581, 570.156554)"><g><path d="M 88.859375 -26.34375 L 79.046875 -12.875 C 75.785156 -8.375 72.316406 -4.082031 68.640625 0 C 65.367188 3.269531 61.894531 5.925781 58.21875 7.96875 C 54.132812 10.414062 49.84375 12.050781 45.34375 12.875 C 36.769531 14.914062 29.007812 13.894531 22.0625 9.8125 C 15.113281 5.71875 10.003906 -0.613281 6.734375 -9.1875 C 3.054688 -20.21875 2.242188 -30.84375 4.296875 -41.0625 C 6.335938 -51.269531 10.015625 -61.484375 15.328125 -71.703125 C 21.046875 -82.316406 27.582031 -92.53125 34.9375 -102.34375 C 42.289062 -111.738281 50.050781 -121.132812 58.21875 -130.53125 C 63.125 -135.4375 68.4375 -140.132812 74.15625 -144.625 C 79.875 -148.707031 85.796875 -152.789062 91.921875 -156.875 C 98.460938 -162.1875 104.382812 -161.164062 109.6875 -153.8125 C 114.59375 -148.09375 117.863281 -141.757812 119.5 -134.8125 C 120.726562 -127.875 120.523438 -120.726562 118.890625 -113.375 C 116.023438 -99.070312 113.570312 -85.179688 111.53125 -71.703125 C 109.082031 -57.804688 107.445312 -43.710938 106.625 -29.421875 C 106.21875 -27.785156 106.21875 -26.351562 106.625 -25.125 C 107.039062 -23.894531 107.25 -22.460938 107.25 -20.828125 C 108.875 -20.421875 111.117188 -20.832031 113.984375 -22.0625 C 116.429688 -23.289062 118.882812 -24.71875 121.34375 -26.34375 C 123.789062 -27.570312 126.238281 -29.003906 128.6875 -30.640625 C 130.726562 -32.273438 132.363281 -33.296875 133.59375 -33.703125 C 136.863281 -35.742188 139.722656 -36.15625 142.171875 -34.9375 C 144.210938 -33.707031 145.234375 -31.457031 145.234375 -28.1875 L 145.234375 -25.734375 C 144.003906 -23.691406 141.960938 -21.648438 139.109375 -19.609375 C 135.835938 -17.160156 132.566406 -14.914062 129.296875 -12.875 C 126.035156 -10.832031 122.769531 -8.992188 119.5 -7.359375 C 116.226562 -5.722656 113.367188 -4.703125 110.921875 -4.296875 C 106.835938 -3.472656 103.363281 -3.878906 100.5 -5.515625 C 97.226562 -7.148438 94.570312 -9.601562 92.53125 -12.875 C 91.3125 -14.914062 90.703125 -17.160156 90.703125 -19.609375 C 90.285156 -22.054688 89.671875 -24.300781 88.859375 -26.34375 Z M 103.5625 -111.53125 C 101.519531 -108.675781 99.882812 -106.632812 98.65625 -105.40625 L 93.765625 -100.5 C 85.179688 -92.332031 77.007812 -83.753906 69.25 -74.765625 C 61.488281 -65.773438 54.335938 -56.582031 47.796875 -47.1875 C 41.265625 -36.96875 35.546875 -26.140625 30.640625 -14.703125 C 29.003906 -10.617188 29.207031 -7.554688 31.25 -5.515625 C 33.289062 -3.472656 36.5625 -3.066406 41.0625 -4.296875 C 43.914062 -5.109375 46.773438 -6.332031 49.640625 -7.96875 C 52.492188 -9.195312 54.941406 -10.832031 56.984375 -12.875 C 67.203125 -25.53125 76.601562 -38.394531 85.1875 -51.46875 C 93.351562 -64.550781 98.867188 -79.257812 101.734375 -95.59375 C 102.546875 -98.050781 102.953125 -100.503906 102.953125 -102.953125 C 102.953125 -104.992188 103.15625 -107.851562 103.5625 -111.53125 Z M 103.5625 -111.53125 "/></g></g></g><g fill="#3e2b26" fill-opacity="1"><g transform="translate(388.291349, 570.156554)"><g><path d="M 31.859375 -146.46875 C 29.410156 -155.039062 29.003906 -160.960938 30.640625 -164.234375 C 31.867188 -167.097656 36.160156 -169.34375 43.515625 -170.96875 C 52.910156 -173.007812 62.101562 -175.664062 71.09375 -178.9375 C 80.070312 -182.207031 88.648438 -186.5 96.828125 -191.8125 C 99.679688 -193.851562 102.742188 -195.488281 106.015625 -196.71875 C 108.878906 -197.9375 112.148438 -197.117188 115.828125 -194.265625 C 121.546875 -189.359375 124.40625 -183.023438 124.40625 -175.265625 C 124.8125 -165.867188 123.789062 -157.082031 121.34375 -148.90625 C 118.476562 -140.332031 116.84375 -131.550781 116.4375 -122.5625 C 116.4375 -120.519531 116.023438 -118.679688 115.203125 -117.046875 L 112.75 -112.140625 C 106.21875 -97.023438 99.679688 -82.113281 93.140625 -67.40625 C 86.609375 -52.695312 80.070312 -37.785156 73.53125 -22.671875 C 72.3125 -19.398438 71.289062 -16.132812 70.46875 -12.875 C 69.65625 -9.601562 68.632812 -5.925781 67.40625 -1.84375 C 70.675781 -2.65625 73.742188 -3.472656 76.609375 -4.296875 L 85.1875 -6.734375 C 88.445312 -0.609375 90.078125 3.269531 90.078125 4.90625 C 89.671875 6.945312 87.015625 9.601562 82.109375 12.875 C 77.617188 16.132812 73.128906 18.582031 68.640625 20.21875 C 65.367188 21.851562 62.300781 23.285156 59.4375 24.515625 C 56.175781 26.148438 53.929688 29.210938 52.703125 33.703125 C 51.472656 36.972656 49.226562 39.222656 45.96875 40.453125 C 42.695312 41.671875 39.425781 41.460938 36.15625 39.828125 C 31.664062 37.785156 27.375 35.335938 23.28125 32.484375 C 18.789062 30.023438 14.707031 27.164062 11.03125 23.90625 C 6.539062 20.226562 4.085938 15.9375 3.671875 11.03125 C 3.265625 6.125 4.082031 1.222656 6.125 -3.671875 C 10.625 -15.929688 15.523438 -28.394531 20.828125 -41.0625 C 25.734375 -53.3125 30.84375 -65.363281 36.15625 -77.21875 C 41.0625 -89.0625 46.164062 -100.703125 51.46875 -112.140625 C 56.375 -123.171875 61.28125 -134.40625 66.1875 -145.84375 L 68.640625 -151.984375 C 69.453125 -154.023438 70.269531 -156.269531 71.09375 -158.71875 C 63.738281 -158.3125 56.789062 -157.289062 50.25 -155.65625 C 43.71875 -154.019531 37.585938 -150.957031 31.859375 -146.46875 Z M 31.859375 -146.46875 "/></g></g></g><g fill="#3e2b26" fill-opacity="1"><g transform="translate(477.760888, 570.156554)"><g/></g></g><g fill="#e86a46" fill-opacity="1"><g transform="translate(569.682535, 570.156554)"><g><path d="M 64.34375 -237.765625 C 62.300781 -247.160156 60.257812 -255.742188 58.21875 -263.515625 C 52.5 -261.054688 48.617188 -258.195312 46.578125 -254.9375 C 44.535156 -251.664062 43.921875 -246.757812 44.734375 -240.21875 C 47.179688 -225.507812 49.835938 -211.007812 52.703125 -196.71875 C 55.148438 -182.007812 57.394531 -167.300781 59.4375 -152.59375 C 61.070312 -141.96875 62.300781 -131.34375 63.125 -120.71875 C 63.9375 -109.6875 64.957031 -98.863281 66.1875 -88.25 C 66.59375 -83.34375 66.59375 -78.234375 66.1875 -72.921875 C 65.78125 -67.203125 69.046875 -62.707031 75.984375 -59.4375 C 76.804688 -58.625 77.421875 -56.582031 77.828125 -53.3125 C 78.234375 -50.039062 78.03125 -47.59375 77.21875 -45.96875 C 73.132812 -38.195312 71.5 -30.632812 72.3125 -23.28125 C 72.71875 -15.519531 73.332031 -7.757812 74.15625 0 C 76.195312 19.613281 77.828125 39.019531 79.046875 58.21875 C 80.273438 77.414062 79.253906 96.617188 75.984375 115.828125 C 71.085938 142.378906 58.21875 164.4375 37.375 182 C 30.4375 188.132812 22.472656 193.039062 13.484375 196.71875 C 4.085938 200.800781 -4.695312 202.84375 -12.875 202.84375 C -21.445312 202.84375 -28.800781 200.1875 -34.9375 194.875 C -41.46875 189.5625 -45.347656 180.78125 -46.578125 168.53125 C -48.210938 155.445312 -47.394531 143.1875 -44.125 131.75 C -40.851562 120.3125 -36.5625 109.28125 -31.25 98.65625 C -25.53125 87.21875 -19.195312 76.191406 -12.25 65.578125 C -5.3125 54.953125 1.222656 44.125 7.359375 33.09375 C 8.992188 30.226562 10.421875 27.164062 11.640625 23.90625 C 12.460938 20.632812 12.664062 17.363281 12.25 14.09375 C 11.4375 -4.695312 10.210938 -23.488281 8.578125 -42.28125 C 6.941406 -61.070312 5.515625 -79.863281 4.296875 -98.65625 C 3.878906 -108.875 3.671875 -119.085938 3.671875 -129.296875 C 3.671875 -139.515625 4.082031 -149.726562 4.90625 -159.9375 C 5.3125 -171.382812 5.71875 -184.460938 6.125 -199.171875 C 6.125 -213.867188 7.757812 -227.753906 11.03125 -240.828125 C 14.300781 -253.910156 19.816406 -265.148438 27.578125 -274.546875 C 35.335938 -283.941406 46.976562 -289.25 62.5 -290.46875 C 67 -290.882812 71.085938 -288.84375 74.765625 -284.34375 C 78.441406 -279.851562 80.28125 -275.5625 80.28125 -271.46875 C 80.28125 -267.382812 78.847656 -261.875 75.984375 -254.9375 C 72.722656 -247.988281 68.84375 -242.265625 64.34375 -237.765625 Z M 14.703125 58.21875 C 13.484375 59.851562 12.257812 61.078125 11.03125 61.890625 C 9.800781 63.117188 8.78125 64.347656 7.96875 65.578125 C 3.46875 74.148438 -1.226562 82.523438 -6.125 90.703125 C -11.03125 99.273438 -15.726562 108.054688 -20.21875 117.046875 C -24.300781 125.628906 -26.753906 134.410156 -27.578125 143.390625 C -28.804688 152.796875 -26.554688 162.195312 -20.828125 171.59375 C -12.253906 170.363281 -5.71875 166.890625 -1.21875 161.171875 C 2.863281 155.859375 6.332031 149.726562 9.1875 142.78125 C 14.5 129.300781 17.769531 115.617188 19 101.734375 C 20.21875 87.835938 18.785156 73.332031 14.703125 58.21875 Z M 14.703125 58.21875 "/></g></g></g><g fill="#3e2b26" fill-opacity="1"><g transform="translate(653.035382, 570.156554)"><g><path d="M 88.859375 -26.34375 L 79.046875 -12.875 C 75.785156 -8.375 72.316406 -4.082031 68.640625 0 C 65.367188 3.269531 61.894531 5.925781 58.21875 7.96875 C 54.132812 10.414062 49.84375 12.050781 45.34375 12.875 C 36.769531 14.914062 29.007812 13.894531 22.0625 9.8125 C 15.113281 5.71875 10.003906 -0.613281 6.734375 -9.1875 C 3.054688 -20.21875 2.242188 -30.84375 4.296875 -41.0625 C 6.335938 -51.269531 10.015625 -61.484375 15.328125 -71.703125 C 21.046875 -82.316406 27.582031 -92.53125 34.9375 -102.34375 C 42.289062 -111.738281 50.050781 -121.132812 58.21875 -130.53125 C 63.125 -135.4375 68.4375 -140.132812 74.15625 -144.625 C 79.875 -148.707031 85.796875 -152.789062 91.921875 -156.875 C 98.460938 -162.1875 104.382812 -161.164062 109.6875 -153.8125 C 114.59375 -148.09375 117.863281 -141.757812 119.5 -134.8125 C 120.726562 -127.875 120.523438 -120.726562 118.890625 -113.375 C 116.023438 -99.070312 113.570312 -85.179688 111.53125 -71.703125 C 109.082031 -57.804688 107.445312 -43.710938 106.625 -29.421875 C 106.21875 -27.785156 106.21875 -26.351562 106.625 -25.125 C 107.039062 -23.894531 107.25 -22.460938 107.25 -20.828125 C 108.875 -20.421875 111.117188 -20.832031 113.984375 -22.0625 C 116.429688 -23.289062 118.882812 -24.71875 121.34375 -26.34375 C 123.789062 -27.570312 126.238281 -29.003906 128.6875 -30.640625 C 130.726562 -32.273438 132.363281 -33.296875 133.59375 -33.703125 C 136.863281 -35.742188 139.722656 -36.15625 142.171875 -34.9375 C 144.210938 -33.707031 145.234375 -31.457031 145.234375 -28.1875 L 145.234375 -25.734375 C 144.003906 -23.691406 141.960938 -21.648438 139.109375 -19.609375 C 135.835938 -17.160156 132.566406 -14.914062 129.296875 -12.875 C 126.035156 -10.832031 122.769531 -8.992188 119.5 -7.359375 C 116.226562 -5.722656 113.367188 -4.703125 110.921875 -4.296875 C 106.835938 -3.472656 103.363281 -3.878906 100.5 -5.515625 C 97.226562 -7.148438 94.570312 -9.601562 92.53125 -12.875 C 91.3125 -14.914062 90.703125 -17.160156 90.703125 -19.609375 C 90.285156 -22.054688 89.671875 -24.300781 88.859375 -26.34375 Z M 103.5625 -111.53125 C 101.519531 -108.675781 99.882812 -106.632812 98.65625 -105.40625 L 93.765625 -100.5 C 85.179688 -92.332031 77.007812 -83.753906 69.25 -74.765625 C 61.488281 -65.773438 54.335938 -56.582031 47.796875 -47.1875 C 41.265625 -36.96875 35.546875 -26.140625 30.640625 -14.703125 C 29.003906 -10.617188 29.207031 -7.554688 31.25 -5.515625 C 33.289062 -3.472656 36.5625 -3.066406 41.0625 -4.296875 C 43.914062 -5.109375 46.773438 -6.332031 49.640625 -7.96875 C 52.492188 -9.195312 54.941406 -10.832031 56.984375 -12.875 C 67.203125 -25.53125 76.601562 -38.394531 85.1875 -51.46875 C 93.351562 -64.550781 98.867188 -79.257812 101.734375 -95.59375 C 102.546875 -98.050781 102.953125 -100.503906 102.953125 -102.953125 C 102.953125 -104.992188 103.15625 -107.851562 103.5625 -111.53125 Z M 103.5625 -111.53125 "/></g></g></g><g fill="#3e2b26" fill-opacity="1"><g transform="translate(789.690928, 570.156554)"><g><path d="M 75.375 63.734375 C 79.457031 61.691406 82.929688 59.035156 85.796875 55.765625 C 88.648438 52.492188 91.304688 49.019531 93.765625 45.34375 C 96.210938 41.664062 98.660156 37.988281 101.109375 34.3125 C 103.566406 31.050781 106.632812 28.191406 110.3125 25.734375 C 111.9375 26.554688 113.363281 26.96875 114.59375 26.96875 C 115.820312 27.375 117.253906 27.984375 118.890625 28.796875 C 127.878906 33.703125 129.304688 39.832031 123.171875 47.1875 C 118.273438 52.90625 113.375 58.828125 108.46875 64.953125 C 103.5625 71.085938 98.25 76.398438 92.53125 80.890625 C 84.363281 87.835938 75.378906 90.695312 65.578125 89.46875 C 55.359375 88.238281 46.570312 82.925781 39.21875 73.53125 C 30.226562 61.6875 23.285156 49.023438 18.390625 35.546875 C 13.078125 22.066406 9.398438 8.175781 7.359375 -6.125 C 4.085938 -29.820312 2.859375 -53.316406 3.671875 -76.609375 C 4.492188 -99.890625 6.742188 -123.785156 10.421875 -148.296875 C 12.460938 -162.597656 14.503906 -176.691406 16.546875 -190.578125 C 18.179688 -204.472656 20.222656 -218.363281 22.671875 -232.25 C 29.210938 -269.425781 36.566406 -306.398438 44.734375 -343.171875 C 52.492188 -379.535156 64.953125 -414.875 82.109375 -449.1875 C 84.972656 -454.90625 88.859375 -457.765625 93.765625 -457.765625 C 98.660156 -457.359375 102.742188 -454.296875 106.015625 -448.578125 C 112.140625 -437.140625 116.222656 -424.269531 118.265625 -409.96875 C 121.128906 -394.039062 121.945312 -378.3125 120.71875 -362.78125 C 119.5 -347.257812 116.84375 -331.738281 112.75 -316.21875 C 110.707031 -306.8125 108.875 -297.617188 107.25 -288.640625 C 105.613281 -279.648438 103.773438 -270.457031 101.734375 -261.0625 C 100.503906 -254.113281 99.070312 -247.578125 97.4375 -241.453125 C 95.394531 -234.910156 93.351562 -228.375 91.3125 -221.84375 C 88.851562 -211.21875 86.398438 -200.59375 83.953125 -189.96875 C 81.503906 -178.9375 78.847656 -168.113281 75.984375 -157.5 C 73.941406 -150.550781 71.898438 -143.804688 69.859375 -137.265625 C 67.816406 -130.328125 65.773438 -123.382812 63.734375 -116.4375 C 57.191406 -91.507812 53.515625 -66.992188 52.703125 -42.890625 C 51.878906 -18.785156 54.738281 5.925781 61.28125 31.25 C 62.914062 36.96875 64.753906 42.484375 66.796875 47.796875 C 68.429688 53.109375 71.289062 58.421875 75.375 63.734375 Z M 72.3125 -194.875 C 74.351562 -203.039062 76.394531 -211.007812 78.4375 -218.78125 C 80.070312 -226.539062 81.910156 -234.503906 83.953125 -242.671875 C 85.992188 -249.210938 88.242188 -255.546875 90.703125 -261.671875 C 92.742188 -267.796875 94.375 -273.925781 95.59375 -280.0625 C 98.050781 -293.945312 100.300781 -307.628906 102.34375 -321.109375 C 103.976562 -334.597656 105.613281 -348.285156 107.25 -362.171875 C 107.65625 -365.441406 107.65625 -368.914062 107.25 -372.59375 C 106.425781 -376.269531 105.8125 -379.945312 105.40625 -383.625 L 101.734375 -383.625 C 97.234375 -352.164062 91.71875 -320.910156 85.1875 -289.859375 C 78.238281 -258.398438 73.945312 -226.738281 72.3125 -194.875 Z M 72.3125 -194.875 "/></g></g></g><g fill="#3e2b26" fill-opacity="1"><g transform="translate(880.38611, 570.156554)"><g><path d="M 72.3125 -65.578125 L 69.859375 -61.890625 C 67.816406 -59.035156 65.773438 -55.972656 63.734375 -52.703125 C 61.691406 -49.023438 59.851562 -45.550781 58.21875 -42.28125 L 55.15625 -36.15625 C 51.070312 -26.757812 47.800781 -16.75 45.34375 -6.125 C 42.488281 4.90625 41.265625 15.523438 41.671875 25.734375 C 41.671875 26.140625 41.875 27.160156 42.28125 28.796875 C 42.6875 30.835938 43.097656 32.882812 43.515625 34.9375 C 43.515625 36.976562 43.71875 38.609375 44.125 39.828125 L 44.734375 42.28125 C 47.597656 40.238281 52.910156 35.539062 60.671875 28.1875 C 68.429688 21.238281 76.601562 13.679688 85.1875 5.515625 C 93.351562 -2.648438 101.113281 -10.410156 108.46875 -17.765625 C 115.820312 -25.117188 120.722656 -30.226562 123.171875 -33.09375 C 123.992188 -33.90625 124.8125 -35.128906 125.625 -36.765625 C 126.445312 -37.992188 127.265625 -38.609375 128.078125 -38.609375 C 129.710938 -39.421875 131.347656 -39.625 132.984375 -39.21875 C 134.617188 -38.8125 136.457031 -38.609375 138.5 -38.609375 C 138.09375 -36.972656 138.09375 -35.335938 138.5 -33.703125 C 138.5 -31.660156 138.085938 -30.234375 137.265625 -29.421875 C 134.003906 -26.960938 128.695312 -22.054688 121.34375 -14.703125 C 113.988281 -6.941406 106.222656 1.429688 98.046875 10.421875 C 89.878906 19.410156 82.320312 27.785156 75.375 35.546875 C 68.425781 43.710938 63.523438 49.226562 60.671875 52.09375 C 59.035156 54.132812 57.195312 55.972656 55.15625 57.609375 C 52.695312 59.242188 50.242188 60.671875 47.796875 61.890625 C 43.304688 63.523438 39.019531 64.140625 34.9375 63.734375 C 30.4375 63.328125 26.347656 61.285156 22.671875 57.609375 C 14.910156 49.429688 9.804688 40.035156 7.359375 29.421875 C 4.492188 19.203125 3.472656 8.578125 4.296875 -2.453125 C 4.703125 -13.484375 6.742188 -24.515625 10.421875 -35.546875 C 14.097656 -46.160156 18.382812 -55.960938 23.28125 -64.953125 C 29 -74.765625 35.945312 -83.140625 44.125 -90.078125 C 52.289062 -96.617188 62.300781 -100.707031 74.15625 -102.34375 C 79.875 -103.15625 84.976562 -101.925781 89.46875 -98.65625 C 93.550781 -95.394531 96.207031 -91.109375 97.4375 -85.796875 C 97.84375 -83.753906 98.25 -82.117188 98.65625 -80.890625 C 99.070312 -79.253906 99.484375 -77.617188 99.890625 -75.984375 C 100.703125 -72.722656 100.90625 -69.660156 100.5 -66.796875 C 100.09375 -63.929688 98.457031 -61.476562 95.59375 -59.4375 C 91.101562 -55.351562 87.222656 -53.722656 83.953125 -54.546875 C 80.679688 -55.359375 76.800781 -59.035156 72.3125 -65.578125 Z M 72.3125 -65.578125 "/></g></g></g><g fill="#3e2b26" fill-opacity="1"><g transform="translate(991.916668, 570.156554)"><g><path d="M 44.125 7.359375 C 47.394531 7.359375 50.867188 6.539062 54.546875 4.90625 C 57.804688 3.675781 60.867188 2.242188 63.734375 0.609375 C 74.359375 -5.109375 84.773438 -11.644531 94.984375 -19 C 104.785156 -26.351562 113.363281 -34.929688 120.71875 -44.734375 C 121.132812 -45.140625 122.15625 -46.160156 123.78125 -47.796875 C 125.007812 -49.429688 126.644531 -51.066406 128.6875 -52.703125 C 130.320312 -53.929688 131.957031 -54.953125 133.59375 -55.765625 C 135.226562 -56.578125 136.25 -56.78125 136.65625 -56.375 C 139.925781 -53.101562 141.765625 -50.859375 142.171875 -49.640625 C 142.578125 -48.410156 141.757812 -46.160156 139.71875 -42.890625 C 137.269531 -37.585938 134.613281 -33.097656 131.75 -29.421875 C 123.175781 -17.566406 112.351562 -7.144531 99.28125 1.84375 C 85.789062 11.238281 72.507812 18.796875 59.4375 24.515625 C 54.539062 26.554688 49.4375 27.984375 44.125 28.796875 C 38.40625 29.617188 33.09375 28.394531 28.1875 25.125 C 23.695312 22.675781 20.019531 19 17.15625 14.09375 C 13.882812 9.601562 11.226562 5.109375 9.1875 0.609375 C 3.875 -12.054688 2.242188 -25.945312 4.296875 -41.0625 C 5.109375 -48.820312 6.945312 -55.96875 9.8125 -62.5 C 11.4375 -66.59375 13.273438 -70.679688 15.328125 -74.765625 C 17.367188 -78.441406 19.410156 -82.117188 21.453125 -85.796875 C 26.347656 -96.003906 34.109375 -103.5625 44.734375 -108.46875 C 50.046875 -110.914062 56.378906 -111.320312 63.734375 -109.6875 C 70.679688 -108.0625 74.765625 -103.773438 75.984375 -96.828125 C 76.804688 -90.285156 77.015625 -83.953125 76.609375 -77.828125 C 76.191406 -71.703125 74.554688 -65.570312 71.703125 -59.4375 C 69.242188 -53.71875 66.382812 -48.203125 63.125 -42.890625 C 59.445312 -37.585938 54.75 -33.097656 49.03125 -29.421875 C 45.757812 -27.367188 42.488281 -25.320312 39.21875 -23.28125 C 35.539062 -20.832031 32.882812 -17.769531 31.25 -14.09375 C 30.4375 -12.050781 30.640625 -9.191406 31.859375 -5.515625 C 32.679688 -1.835938 33.5 0.816406 34.3125 2.453125 C 36.351562 5.722656 39.625 7.359375 44.125 7.359375 Z M 44.734375 -50.859375 C 51.679688 -56.992188 56.175781 -63.738281 58.21875 -71.09375 C 60.257812 -78.4375 59.847656 -84.359375 56.984375 -88.859375 C 54.941406 -82.316406 52.898438 -75.984375 50.859375 -69.859375 C 48.816406 -63.328125 46.773438 -56.992188 44.734375 -50.859375 Z M 44.734375 -50.859375 "/></g></g></g><g fill="#3e2b26" fill-opacity="1"><g transform="translate(1110.188032, 570.156554)"><g><path d="M 96.21875 -106.015625 C 98.257812 -119.492188 100.503906 -133.382812 102.953125 -147.6875 C 104.992188 -161.582031 107.035156 -175.675781 109.078125 -189.96875 C 109.898438 -194.46875 109.898438 -198.960938 109.078125 -203.453125 C 107.859375 -207.941406 107.039062 -212.4375 106.625 -216.9375 C 105.8125 -226.332031 104.992188 -235.929688 104.171875 -245.734375 C 102.953125 -255.546875 102.546875 -265.351562 102.953125 -275.15625 C 103.359375 -287.40625 102.953125 -299.863281 101.734375 -312.53125 C 100.503906 -325.195312 100.09375 -337.863281 100.5 -350.53125 C 101.320312 -364.007812 102.546875 -377.488281 104.171875 -390.96875 C 105.804688 -404.039062 107.441406 -417.113281 109.078125 -430.1875 C 109.898438 -435.914062 110.515625 -441.429688 110.921875 -446.734375 C 110.921875 -452.046875 111.738281 -457.359375 113.375 -462.671875 C 115.414062 -470.429688 117.863281 -477.988281 120.71875 -485.34375 C 123.582031 -492.695312 126.238281 -500.253906 128.6875 -508.015625 C 132.363281 -517.828125 139.71875 -522.117188 150.75 -520.890625 C 167.5 -519.660156 180.570312 -515.164062 189.96875 -507.40625 C 199.363281 -499.238281 203.859375 -485.960938 203.453125 -467.578125 C 203.453125 -453.679688 202.226562 -439.789062 199.78125 -425.90625 C 196.914062 -411.601562 194.460938 -397.507812 192.421875 -383.625 C 190.378906 -368.914062 188.132812 -354.207031 185.6875 -339.5 C 182.820312 -324.789062 180.164062 -310.082031 177.71875 -295.375 C 174.445312 -276.582031 171.175781 -258.195312 167.90625 -240.21875 C 164.644531 -221.832031 161.582031 -203.242188 158.71875 -184.453125 C 156.269531 -166.066406 154.023438 -148.09375 151.984375 -130.53125 C 149.929688 -112.957031 147.476562 -95.1875 144.625 -77.21875 C 143.800781 -71.5 142.367188 -65.984375 140.328125 -60.671875 C 138.285156 -55.359375 137.0625 -49.84375 136.65625 -44.125 C 134.613281 -29.007812 130.320312 -15.117188 123.78125 -2.453125 C 116.84375 10.210938 109.898438 22.675781 102.953125 34.9375 C 93.960938 50.863281 80.273438 62.300781 61.890625 69.25 C 51.679688 73.332031 41.671875 72.921875 31.859375 68.015625 C 22.054688 63.117188 15.113281 55.769531 11.03125 45.96875 C 7.757812 37.382812 5.921875 28.800781 5.515625 20.21875 C 4.703125 12.050781 5.109375 4.085938 6.734375 -3.671875 C 7.960938 -11.441406 10.210938 -19.207031 13.484375 -26.96875 C 16.335938 -34.320312 19.8125 -41.675781 23.90625 -49.03125 C 28.800781 -58.425781 34.722656 -67.207031 41.671875 -75.375 C 48.203125 -83.132812 56.171875 -89.671875 65.578125 -94.984375 C 70.066406 -97.023438 74.96875 -98.863281 80.28125 -100.5 C 85.175781 -102.132812 90.488281 -103.972656 96.21875 -106.015625 Z M 85.1875 -90.703125 C 83.132812 -88.648438 80.882812 -87.015625 78.4375 -85.796875 C 75.582031 -84.160156 73.132812 -82.320312 71.09375 -80.28125 C 57.601562 -68.425781 47.59375 -54.941406 41.0625 -39.828125 C 34.519531 -24.710938 29.613281 -8.984375 26.34375 7.359375 C 25.53125 11.847656 25.53125 16.132812 26.34375 20.21875 C 27.164062 24.71875 27.984375 29.007812 28.796875 33.09375 C 30.835938 38.8125 34.515625 42.078125 39.828125 42.890625 C 45.140625 43.710938 49.632812 41.875 53.3125 37.375 C 55.351562 34.519531 57.601562 31.660156 60.0625 28.796875 C 62.101562 25.941406 63.941406 23.082031 65.578125 20.21875 C 72.515625 5.925781 78.234375 -8.367188 82.734375 -22.671875 C 87.222656 -36.566406 90.488281 -51.070312 92.53125 -66.1875 C 94.164062 -75.175781 91.71875 -83.347656 85.1875 -90.703125 Z M 121.34375 -294.765625 C 122.15625 -296.804688 122.96875 -299.050781 123.78125 -301.5 C 124.195312 -303.539062 124.609375 -305.789062 125.015625 -308.25 C 129.097656 -329.894531 133.179688 -351.546875 137.265625 -373.203125 C 141.347656 -394.441406 145.226562 -416.09375 148.90625 -438.15625 C 150.539062 -445.914062 151.972656 -453.679688 153.203125 -461.453125 C 154.015625 -468.804688 154.832031 -476.566406 155.65625 -484.734375 C 156.0625 -488.816406 155.859375 -492.695312 155.046875 -496.375 C 153.816406 -499.644531 151.160156 -502.914062 147.078125 -506.1875 C 146.671875 -502.101562 146.46875 -498.628906 146.46875 -495.765625 C 146.46875 -492.492188 146.054688 -489.222656 145.234375 -485.953125 C 143.191406 -476.972656 140.945312 -468.394531 138.5 -460.21875 C 136.039062 -451.644531 133.789062 -442.863281 131.75 -433.875 C 129.707031 -426.113281 127.867188 -418.554688 126.234375 -411.203125 C 124.597656 -403.847656 123.375 -396.285156 122.5625 -388.515625 C 121.75 -372.992188 121.132812 -357.472656 120.71875 -341.953125 C 120.3125 -326.015625 119.703125 -310.285156 118.890625 -294.765625 Z M 121.34375 -294.765625 "/></g></g></g><g fill="#3e2b26" fill-opacity="1"><g transform="translate(1273.194257, 570.156554)"><g><path d="M 3.0625 0 C 4.695312 -6.539062 6.332031 -13.28125 7.96875 -20.21875 C 9.195312 -26.757812 11.238281 -33.09375 14.09375 -39.21875 C 16.957031 -46.976562 20.226562 -54.332031 23.90625 -61.28125 C 27.582031 -68.226562 31.257812 -75.378906 34.9375 -82.734375 C 38.195312 -88.859375 40.847656 -92.535156 42.890625 -93.765625 C 44.523438 -94.578125 48.816406 -94.164062 55.765625 -92.53125 L 57.609375 -92.53125 C 59.648438 -93.351562 61.691406 -93.765625 63.734375 -93.765625 C 65.773438 -93.765625 67.410156 -92.742188 68.640625 -90.703125 C 70.273438 -88.242188 71.703125 -85.789062 72.921875 -83.34375 C 73.742188 -80.476562 73.945312 -77.414062 73.53125 -74.15625 C 72.3125 -66.382812 71.5 -58.617188 71.09375 -50.859375 C 70.675781 -43.097656 69.859375 -35.335938 68.640625 -27.578125 C 67.816406 -20.628906 66.796875 -13.890625 65.578125 -7.359375 C 64.347656 -0.410156 62.710938 6.332031 60.671875 12.875 C 58.628906 18.59375 55.972656 23.898438 52.703125 28.796875 C 49.023438 33.703125 43.710938 37.378906 36.765625 39.828125 C 27.773438 43.921875 20.832031 42.289062 15.9375 34.9375 C 14.300781 32.476562 13.070312 29.820312 12.25 26.96875 C 11.03125 24.507812 10.007812 21.851562 9.1875 19 C 7.144531 14.09375 5.101562 7.757812 3.0625 0 Z M 47.796875 -45.34375 C 44.523438 -34.3125 41.050781 -23.691406 37.375 -13.484375 C 33.695312 -2.859375 32.675781 8.375 34.3125 20.21875 C 42.894531 12.457031 48.820312 3.472656 52.09375 -6.734375 C 55.351562 -16.546875 58.414062 -26.757812 61.28125 -37.375 C 58.832031 -39.007812 56.585938 -40.441406 54.546875 -41.671875 C 52.085938 -42.898438 49.835938 -44.125 47.796875 -45.34375 Z M 63.125 -80.890625 C 57.8125 -75.984375 55.15625 -69.851562 55.15625 -62.5 C 55.15625 -55.144531 57.8125 -50.242188 63.125 -47.796875 Z M 63.125 -80.890625 "/></g></g></g></svg>